<svg xmlns="http://www.w3.org/2000/svg" width="144" height="44" viewBox="0 0 144 44" role="img" aria-labelledby="title">
<title id="title">YouTube</title>
<defs>
<linearGradient id="metal" x2=".7" y2="1"><stop stop-color="#202537"/><stop offset="1" stop-color="#0d1320"/></linearGradient>
<linearGradient id="light"><stop stop-color="#bda1ff"/><stop offset=".52" stop-color="#8acaff"/><stop offset="1" stop-color="#7b67c9"/></linearGradient>
</defs>
<style>@media(prefers-reduced-motion:reduce){.energy{display:none}}</style>
<path d="M8 .5H135.5L143.5 8.5V35.5L135.5 43.5H8.5L.5 35.5V8Z" fill="url(#metal)" stroke="#354052"/>
<path d="M8 1H135L143 9M1 35L9 43H135" fill="none" stroke="#90734e" stroke-opacity=".65"/>
<path d="M37 8V35" stroke="#394254" stroke-width=".65"/>
<svg xmlns="http://www.w3.org/2000/svg" viewBox="0 0 34.46 24" x="9" y="10" width="22" height="22" preserveAspectRatio="xMidYMid meet" aria-hidden="true"><title>YouTube</title><defs><filter id="brand-youtube-b0b8020747cf-theme-tint" x="-10%" y="-10%" width="120%" height="120%" filterUnits="objectBoundingBox" color-interpolation-filters="sRGB"><feFlood flood-color="#aa91ff" result="theme-color" /><feComposite in="theme-color" in2="SourceAlpha" operator="in" /></filter></defs><g filter="url(#brand-youtube-b0b8020747cf-theme-tint)"><path d="M33.739 3.974c.72 2.644.72 8.16.72 8.16s0 5.516-.72 8.16a4.282 4.282 0 0 1-3.047 2.998C28.005 24 17.229 24 17.229 24s-10.775 0-13.462-.708A4.282 4.282 0 0 1 .72 20.294C0 17.65 0 12.134 0 12.134s0-5.516.72-8.16A4.281 4.281 0 0 1 3.767.977C6.454.268 17.229.268 17.229.268s10.776 0 13.463.709a4.281 4.281 0 0 1 3.047 2.997zM13.783 17.22l8.953-5.086-8.953-5.085v10.17z" fill="#ffffff" fill-rule="evenodd" /></g></svg>
<path d="M43 36H123L129 30" fill="none" stroke="#4e5176" stroke-width=".65"/>
<g class="energy" opacity="0"><path d="M43 36H123L129 30" fill="none" stroke="url(#light)" stroke-width="1.5"/><circle cx="132" cy="14" r="1.5" fill="#c0caff"/></g>
<text x="45" y="25" fill="#ececf7" font-family="Inter,Segoe UI,Arial,sans-serif" font-size="13" font-weight="500">YouTube</text>
</svg>